<svg width="128" height="128" viewBox="0 0 128 128" fill="none" xmlns="http://www.w3.org/2000/svg">
  <!-- Background circle with gradient -->
  <defs>
    <linearGradient id="bgGradient" x1="0%" y1="0%" x2="100%" y2="100%">
      <stop offset="0%" style="stop-color:#2D3748;stop-opacity:1" />
      <stop offset="100%" style="stop-color:#1A202C;stop-opacity:1" />
    </linearGradient>
  </defs>

  <!-- Background circle -->
  <circle cx="64" cy="64" r="60" fill="url(#bgGradient)" stroke="#4A5568" stroke-width="3"/>

  <!-- Central node with glow effect -->
  <circle cx="64" cy="64" r="14" fill="#4299E1" stroke="#2B6CB0" stroke-width="3"/>
  <circle cx="64" cy="64" r="10" fill="#63B3ED"/>

  <!-- Dependency nodes -->
  <circle cx="32" cy="32" r="10" fill="#48BB78" stroke="#2F855A" stroke-width="2"/>
  <circle cx="96" cy="32" r="10" fill="#F6AD55" stroke="#C05621" stroke-width="2"/>
  <circle cx="32" cy="96" r="10" fill="#F687B3" stroke="#B83280" stroke-width="2"/>
  <circle cx="96" cy="96" r="10" fill="#9F7AEA" stroke="#553C9A" stroke-width="2"/>

  <!-- Connection lines with better visibility -->
  <line x1="64" y1="64" x2="32" y2="32" stroke="#E2E8F0" stroke-width="3" stroke-linecap="round"/>
  <line x1="64" y1="64" x2="96" y2="32" stroke="#E2E8F0" stroke-width="3" stroke-linecap="round"/>
  <line x1="64" y1="64" x2="32" y2="96" stroke="#E2E8F0" stroke-width="3" stroke-linecap="round"/>
  <line x1="64" y1="64" x2="96" y2="96" stroke="#E2E8F0" stroke-width="3" stroke-linecap="round"/>

  <!-- Secondary connections -->
  <line x1="32" y1="32" x2="96" y2="32" stroke="#CBD5E0" stroke-width="2" stroke-linecap="round" opacity="0.8"/>
  <line x1="32" y1="96" x2="96" y2="96" stroke="#CBD5E0" stroke-width="2" stroke-linecap="round" opacity="0.8"/>

  <!-- Small decorative nodes -->
  <circle cx="48" cy="48" r="4" fill="#F7FAFC" opacity="0.9"/>
  <circle cx="80" cy="48" r="4" fill="#F7FAFC" opacity="0.9"/>
  <circle cx="48" cy="80" r="4" fill="#F7FAFC" opacity="0.9"/>
  <circle cx="80" cy="80" r="4" fill="#F7FAFC" opacity="0.9"/>

  <!-- Highlight effect on central node -->
  <circle cx="60" cy="60" r="4" fill="#FFFFFF" opacity="0.6"/>
</svg>
